<?xml version="1.0" encoding="utf-8"?>
<!-- Generator: Adobe Illustrator 21.0.0, SVG Export Plug-In . SVG Version: 6.00 Build 0)  -->
<svg version="1.1" id="Layer_1" xmlns="http://www.w3.org/2000/svg" xmlns:xlink="http://www.w3.org/1999/xlink" x="0px" y="0px"
	 viewBox="0 0 354 250" style="enable-background:new 0 0 354 250;" xml:space="preserve">
<style type="text/css">
	.st0{opacity:0.1;fill:#989898;enable-background:new    ;}
	.st1{fill:#1FB4FF;stroke:#401966;stroke-width:0.5;stroke-miterlimit:10;}
	.st2{fill:#1FB4FF;stroke:#401966;stroke-width:0.25;stroke-miterlimit:10;}
	.st3{fill:#FFFFFF;}
	.st4{fill:#401966;}
	.st5{fill:#FFFFFF;stroke:#401966;stroke-width:0.75;stroke-miterlimit:10;}
</style>
<path class="st0" d="M313.6,178.5c1,24.6-11.5,48.1-33.3,59.5c-7.6,4-16.2,6.6-25.6,6.3c-37.7-1-43.3-18.3-77.7-12.3
	s-68,15.9-83.7,2.6c-15.7-13.3-19.7-24-47.7-23S0.6,172,8.3,125.7s32.3-83.1,68-83.7s66-25.6,127.7-19.3s102,1.7,111,54
	C322.3,119.3,312.3,146.8,313.6,178.5z"/>
<g>
	<g>
		<path id="path3060" class="st1" d="M52.3,52.3v74.6h76.2L203,52.3l0,0H52.3L52.3,52.3z"/>
		<path id="path5384" class="st2" d="M148.7,119.3v5.6h0.8v-2.4h0.9l1.5,2.4h0.9l-1.6-2.4c0.8-0.1,1.5-0.6,1.5-1.6
			c0-1.1-0.7-1.6-2-1.6H148.7z M149.6,120h1.2c0.6,0,1.2,0.1,1.2,0.8c0,0.9-0.6,0.9-1.4,0.9h-1V120z M150.6,117.2
			c-2.7,0-4.9,2.1-4.9,4.8c0,2.8,2.3,4.9,4.9,4.9c2.6,0,4.8-2.1,4.8-4.9C155.5,119.3,153.3,117.2,150.6,117.2z M150.6,118
			c2.2,0,3.9,1.8,3.9,4c0,2.3-1.7,4-3.9,4s-4-1.7-4-4C146.6,119.8,148.4,118,150.6,118z"/>
		<path id="path3100" class="st3" d="M142.6,88h-3.3V76h3.3c4.4,0,7.8,1.4,7.8,5.9C150.4,86.6,146.9,88,142.6,88 M107.4,96.5
			c-1.7,0-3.4-0.3-4.8-0.8l4.7-14.8h0.1l4.6,14.9C110.7,96.2,109.1,96.5,107.4,96.5 M141.7,66.3h-14.8v35.3l-13-35.3h-12.8L90,95.8
			c-1.2-7.4-8.9-10-14.9-11.9c-4-1.3-8.2-3.2-8.2-5.3c0-1.7,2.3-3.3,6.7-3.1c3,0.2,5.6,0.4,10.9,2.9l5.2-9c-4.8-2.4-11.4-4-16.8-4
			l0,0c-6.3,0-11.6,2.1-14.8,5.4c-2.3,2.4-3.5,5.3-3.6,8.7c-0.1,4.5,1.6,7.8,5.1,10.4c3,2.2,6.7,3.6,10.1,4.6
			c4.1,1.3,7.5,2.4,7.4,4.7c0,0.9-0.4,1.7-1,2.3c-1,1.1-2.6,1.5-4.8,1.5c-4.2,0.1-7.3-0.6-12.3-3.5l-4.6,9.1
			c5,2.8,10.8,4.5,16.8,4.5H72c5.2-0.1,9.4-1.6,12.8-4.3l0.5-0.5l-1.5,4h13.5l2.3-6.9c2.4,0.8,5.1,1.3,7.9,1.3s5.4-0.4,7.7-1.2
			l2.2,6.8h22V98.2h4.8c11.6,0,18.4-5.9,18.4-15.8C162.6,71.4,155.9,66.4,141.7,66.3"/>
	</g>
	<g>
		<path class="st1" d="M185.2,109.3h-7.9l-1.3,3.8h-4.2l7.1-19.8h4.6l7.1,19.8h-4.2L185.2,109.3z M181.3,97.9l-2.9,8.3h5.7
			L181.3,97.9z"/>
		<path class="st1" d="M201.9,113h-8.5V93.3h8.1c4.1,0,6.4,2.1,6.4,5.1c0,2.4-1.4,3.9-3.4,4.5c2.2,0.4,3.8,2.5,3.8,4.8
			C208.4,110.8,205.9,113,201.9,113z M200.9,96.5h-3.6v4.9h3.6c1.9,0,2.9-0.8,2.9-2.5C203.9,97.4,202.8,96.5,200.9,96.5z
			 M201.2,104.5h-3.9v5.3h4c1.9,0,3.1-0.9,3.1-2.6C204.3,105.5,203.1,104.5,201.2,104.5z"/>
		<path class="st1" d="M223.6,109.3h-7.9l-1.3,3.8h-4.2l7.1-19.8h4.6l7.1,19.8h-4.2L223.6,109.3z M219.7,97.9l-2.9,8.3h5.7
			L219.7,97.9z"/>
		<path class="st1" d="M239,105.5h-3.3v7.6h-4V93.3h7.3c4.7,0,7.1,2.7,7.1,6.1C246.1,102.4,244.1,105.5,239,105.5z M238.8,102.3
			c2.2,0,3.2-1.1,3.2-2.9s-1-2.9-3.2-2.9h-3.1v5.7h3.1V102.3z"/>
	</g>
	<g>
		<g>
			<path class="st1" d="M94.9,159.9H59.1c-0.6,0-1.1-0.5-1.1-1.1s0.5-1.1,1.1-1.1h35.8c0.6,0,1.1,0.5,1.1,1.1
				C96,159.4,95.5,159.9,94.9,159.9z"/>
		</g>
		<g>
			<g>
				<path class="st1" d="M78.6,151.5H59.1c-0.6,0-1.1-0.5-1.1-1.1s0.5-1.1,1.1-1.1h19.5c0.6,0,1.1,0.5,1.1,1.1
					S79.2,151.5,78.6,151.5z"/>
			</g>
			<g>
				<path class="st4" d="M103.8,151.5H84.3c-0.6,0-1.1-0.5-1.1-1.1s0.5-1.1,1.1-1.1h19.5c0.6,0,1.1,0.5,1.1,1.1
					S104.4,151.5,103.8,151.5z"/>
			</g>
			<g>
				<path class="st1" d="M119.7,151.5h-10.2c-0.6,0-1.1-0.5-1.1-1.1s0.5-1.1,1.1-1.1h10.2c0.6,0,1.1,0.5,1.1,1.1
					C120.8,151,120.3,151.5,119.7,151.5z"/>
			</g>
		</g>
		<g>
			<g>
				<path class="st1" d="M108.9,185h-8.8c-0.6,0-1.1-0.5-1.1-1.1s0.5-1.1,1.1-1.1h8.8c0.6,0,1.1,0.5,1.1,1.1S109.5,185,108.9,185z"
					/>
			</g>
			<g>
				<path class="st4" d="M94.5,185H70.8c-0.6,0-1.1-0.5-1.1-1.1s0.5-1.1,1.1-1.1h23.7c0.6,0,1.1,0.5,1.1,1.1S95.1,185,94.5,185z"/>
			</g>
			<g>
				<path class="st1" d="M65,185h-5.9c-0.6,0-1.1-0.5-1.1-1.1s0.5-1.1,1.1-1.1H65c0.6,0,1.1,0.5,1.1,1.1S65.6,185,65,185z"/>
			</g>
		</g>
		<g>
			<g>
				<path class="st1" d="M113.3,176.6H75c-0.6,0-1.1-0.5-1.1-1.1s0.5-1.1,1.1-1.1h38.4c0.6,0,1.1,0.5,1.1,1.1
					C114.4,176.1,113.9,176.6,113.3,176.6z"/>
			</g>
			<g>
				<path class="st4" d="M69.2,176.6H59.1c-0.6,0-1.1-0.5-1.1-1.1s0.5-1.1,1.1-1.1h10.2c0.6,0,1.1,0.5,1.1,1.1
					C70.3,176.1,69.8,176.6,69.2,176.6z"/>
			</g>
		</g>
		<g>
			<g>
				<path class="st1" d="M94.9,143.2H59.1c-0.6,0-1.1-0.5-1.1-1.1s0.5-1.1,1.1-1.1h35.8c0.6,0,1.1,0.5,1.1,1.1
					C96,142.7,95.5,143.2,94.9,143.2z"/>
			</g>
			<g>
				<path class="st1" d="M111.1,143.2H99.6c-0.6,0-1.1-0.5-1.1-1.1s0.5-1.1,1.1-1.1h11.5c0.6,0,1.1,0.5,1.1,1.1
					C112.1,142.7,111.6,143.2,111.1,143.2z"/>
			</g>
		</g>
		<g>
			<g>
				<path class="st1" d="M70.6,168.2H59.1c-0.6,0-1.1-0.5-1.1-1.1s0.5-1.1,1.1-1.1h11.5c0.6,0,1.1,0.5,1.1,1.1
					C71.6,167.8,71.2,168.2,70.6,168.2z"/>
			</g>
			<g>
				<path class="st4" d="M102.6,168.2H75.5c-0.6,0-1.1-0.5-1.1-1.1s0.5-1.1,1.1-1.1h27.1c0.6,0,1.1,0.5,1.1,1.1
					C103.6,167.8,103.2,168.2,102.6,168.2z"/>
			</g>
		</g>
		<g>
			<g>
				<path class="st4" d="M70.6,193.3H59.1c-0.6,0-1.1-0.5-1.1-1.1s0.5-1.1,1.1-1.1h11.5c0.6,0,1.1,0.5,1.1,1.1
					C71.6,192.8,71.2,193.3,70.6,193.3z"/>
			</g>
			<g>
				<path class="st1" d="M102.6,193.3H75.5c-0.6,0-1.1-0.5-1.1-1.1s0.5-1.1,1.1-1.1h27.1c0.6,0,1.1,0.5,1.1,1.1
					C103.6,192.8,103.2,193.3,102.6,193.3z"/>
			</g>
		</g>
	</g>
	<g>
		<path class="st1" d="M244.6,165.7v-4.2H243c-0.3-1.5-0.9-2.9-1.7-4.1l1.2-1.2l-2.9-2.9l-1.2,1.2c-1.2-0.8-2.6-1.4-4.1-1.7v-1.6
			h-4.2v1.6c-1.5,0.3-2.9,0.9-4.1,1.7l-1.2-1.2l-2.9,2.9l1.2,1.2c-0.8,1.2-1.4,2.6-1.7,4.1h-1.6v4.2h1.6c0.3,1.5,0.9,2.9,1.7,4.1
			l-1.2,1.2l2.9,2.9l1.2-1.2c1.2,0.8,2.6,1.4,4.1,1.7v1.6h4.2v-1.6c1.5-0.3,2.9-0.9,4.1-1.7l1.2,1.2l2.9-2.9l-1.2-1.2
			c0.8-1.2,1.4-2.6,1.7-4.1H244.6z M232.2,170.7c-3.9,0-7-3.1-7-7s3.1-7,7-7s7,3.1,7,7C239.3,167.5,236.1,170.7,232.2,170.7z"/>
		<g>
			<path class="st1" d="M219,153.6v-2.5h-1c-0.2-0.9-0.5-1.7-1-2.4l0.7-0.7l-1.7-1.7l-0.7,0.7c-0.7-0.5-1.5-0.8-2.4-1v-1h-2.5v1
				c-0.9,0.2-1.7,0.5-2.4,1l-0.7-0.7l-1.7,1.7l0.7,0.7c-0.5,0.7-0.8,1.5-1,2.4h-1v2.5h1c0.2,0.9,0.5,1.7,1,2.4l-0.7,0.7l1.7,1.7
				l0.7-0.7c0.7,0.5,1.5,0.8,2.4,1v1h2.5v-1c0.9-0.2,1.7-0.5,2.4-1l0.7,0.7l1.7-1.7L217,156c0.5-0.7,0.8-1.5,1-2.4H219z
				 M211.7,156.5c-2.3,0-4.2-1.9-4.2-4.2s1.9-4.2,4.2-4.2s4.2,1.9,4.2,4.2S214,156.5,211.7,156.5z"/>
			<circle class="st1" cx="211.7" cy="152.3" r="1"/>
		</g>
		<g>
			<path class="st1" d="M222.2,181.1v-4h-1.6c-0.3-1.4-0.8-2.8-1.6-3.9l1.1-1.1l-2.9-2.9l-1.1,1.1c-1.2-0.8-2.5-1.4-3.9-1.6V167h-4
				v1.6c-1.4,0.3-2.8,0.8-3.9,1.6l-1.1-1.1l-2.9,2.9l1.1,1.1c-0.8,1.2-1.4,2.5-1.6,3.9H198v4h1.6c0.3,1.4,0.8,2.8,1.6,3.9l-1.1,1.1
				l2.9,2.9l1.1-1.1c1.2,0.8,2.5,1.4,3.9,1.6v1.6h4v-1.6c1.4-0.3,2.8-0.8,3.9-1.6l1.1,1.1l2.9-2.9l-1.1-1.1c0.8-1.2,1.4-2.5,1.6-3.9
				h1.8V181.1z M210.1,185.9c-3.8,0-6.9-3.1-6.9-6.9c0-3.8,3.1-6.9,6.9-6.9c3.8,0,6.9,3.1,6.9,6.9
				C216.9,182.9,213.9,185.9,210.1,185.9z"/>
			<circle class="st1" cx="210.1" cy="179.1" r="1.6"/>
		</g>
	</g>
	<g>
		<path class="st5" d="M146.1,174.5l-19.4-8.6v-2.8l19.4-9.7v4.7l-13.4,6.2l13.4,5.5V174.5z"/>
		<path class="st5" d="M164.4,149.9l-10.7,28.6h-3.2l10.7-28.6H164.4z"/>
		<path class="st5" d="M168.8,169.8l13.4-5.5l-13.4-6.2v-4.7l19.4,9.7v2.8l-19.4,8.6V169.8z"/>
	</g>
</g>
</svg>
